<svg xmlns="http://www.w3.org/2000/svg" xmlns:xlink="http://www.w3.org/1999/xlink" width="50" height="50" viewBox="0 0 50 50">
  <defs>
    <linearGradient id="linear-gradient" x1="0.5" x2="0.5" y2="1" gradientUnits="objectBoundingBox">
      <stop offset="0" stop-color="#efd8ff"/>
      <stop offset="1" stop-color="#d89dfe"/>
    </linearGradient>
  </defs>
  <g id="Loans_icon" transform="translate(-1219 -305)">
    <rect id="Rectangle_11512" data-name="Rectangle 11512" width="50" height="50" rx="25" transform="translate(1219 305)" fill="url(#linear-gradient)"/>
    <path id="Path_20003" data-name="Path 20003" d="M1250.688,327.094h0l-5.344,2.781v5.25l.781,2.344,1.688,1.656,2.438,1.594.594.406,3.906-2.656,1.563-2.156.313-4.281v-2.437l-5.469-2.75h-.469" fill="#fff" opacity="0.85"/>
    <circle id="Ellipse_97" data-name="Ellipse 97" cx="9" cy="9" r="9" transform="translate(1232 319)" fill="#fff" opacity="0.85"/>
    <g id="rupee_9_" data-name="rupee (9)" transform="translate(1201.495 267.288)">
      <path id="Path_20000" data-name="Path 20000" d="M152.625,140.017a.343.343,0,0,0,0-.686l-4.31-.046-1.728-.019h0a.343.343,0,0,0,0,.686l1.728.019a2.251,2.251,0,0,1,2.2,1.929l-3.949-.042h0a.343.343,0,0,0,0,.686l3.949.042a2.248,2.248,0,0,1-2.242,1.881l-1.728-.019h0a.343.343,0,0,0-.238.589l4.274,4.127a.343.343,0,1,0,.476-.493l-3.654-3.528.866.009a2.933,2.933,0,0,0,2.941-2.559l1.4.015h0a.343.343,0,0,0,0-.686l-1.4-.015a2.931,2.931,0,0,0-1.01-1.916l2.428.026Z" transform="translate(-110.016 -83.495)"/>
      <path id="Path_20001" data-name="Path 20001" d="M55.2,61.988l-5.7-2.8a10.055,10.055,0,1,0-5.6,10.657,4.793,4.793,0,0,0,1.434,1.673l3.81,2.6a.343.343,0,0,0,.386,0l3.81-2.6a5.182,5.182,0,0,0,2.055-3.882V62.3A.343.343,0,0,0,55.2,61.988ZM30.191,60.769a9.372,9.372,0,0,1,18.637-1.412l-5.36,2.622a.343.343,0,0,0-.192.308v5.349a4.381,4.381,0,0,0,.332,1.588,9.374,9.374,0,0,1-13.417-8.455ZM54.7,67.637a4.564,4.564,0,0,1-1.755,3.315l-3.616,2.464-3.617-2.464a4.266,4.266,0,0,1-1.354-1.707,3.966,3.966,0,0,1-.4-1.609V62.5l5.371-2.628L54.7,62.509Z"/>
      <path id="Path_20002" data-name="Path 20002" d="M328.764,298.729a.343.343,0,1,0-.479.491l1.726,1.684a.343.343,0,0,0,.479,0l3.11-3.033a.343.343,0,1,0-.479-.491l-2.87,2.8Z" transform="translate(-281.609 -232.48)"/>
    </g>
  </g>
</svg>
