<svg xmlns="http://www.w3.org/2000/svg" xmlns:xlink="http://www.w3.org/1999/xlink" width="50" height="50" viewBox="0 0 50 50">
  <defs>
    <linearGradient id="linear-gradient" x1="0.5" x2="0.5" y2="1" gradientUnits="objectBoundingBox">
      <stop offset="0" stop-color="#a6e8dd"/>
      <stop offset="1" stop-color="#80d8ca"/>
    </linearGradient>
  </defs>
  <g id="Mutual_Funds_icon" transform="translate(-1219 -305)">
    <rect id="Rectangle_11512" data-name="Rectangle 11512" width="50" height="50" rx="25" transform="translate(1219 305)" fill="url(#linear-gradient)"/>
    <path id="Path_19986" data-name="Path 19986" d="M1248.188,323.531l2.5,1.063.813-.562,1.313-.281.594.281v1.813l-.437.813.438.781.813,2.313.219.813h.469l1.281.375.281,1v2.313l-.844.563h-1.406l-.812.375-.437.594-1.469,1.625-.437.406-.219,1.813-.156,1.313-.219.688-.625.469h-.969l-.5-.156-.406-1.219-.187-.875-.406-.219-.75.344h-.75l-.875.188h-1.156l-1.156-.187-.969-.125-.562-.219h-.375l-.156.531-.312,1.125v.656l-.562.156-1.125.156-.562-.625-.375-.906v-1.437l-.156-1.187-.969-1.281-.875-.906-.812-1.375-.531-1.781v-1.531l.281-1.781.75-2,.844-1.312,2.406-1.687,1.813-.906.531-.469V322l.188-.969.563-1.25,1.156-.844,1.188-.312H1245l1.031.313.594.563.438.469.719,1.281v2.063Z" fill="#fff" opacity="0.85"/>
    <path id="piggy-bank_6_" data-name="piggy-bank (6)" d="M20.891,14.215a.419.419,0,0,1-.419-.419V12.87a.419.419,0,0,1,.839,0V13.8A.419.419,0,0,1,20.891,14.215Zm5.11.828v2.405a1.532,1.532,0,0,1-1.528,1.532H22.921a9.384,9.384,0,0,1-2.34,2.7l-.26,2.889a1.884,1.884,0,0,1-3.713.252l-.244-1.073a12.5,12.5,0,0,1-6.171,0l-.244,1.073a1.881,1.881,0,0,1-3.709-.252l-.26-2.889a8.636,8.636,0,0,1-3.392-6.266,2.279,2.279,0,0,1-.54.066H1.99a2.025,2.025,0,0,1-1.446-.618,2.18,2.18,0,0,1-.252-2.539.418.418,0,1,1,.731.406,1.335,1.335,0,0,0,.13,1.556,1.218,1.218,0,0,0,.857.358,1.67,1.67,0,0,0,.588-.119C2.827,10.86,5.605,7.764,9.452,6.5A3.961,3.961,0,1,1,17.109,6.5a11.522,11.522,0,0,1,2.273,1.022,4.645,4.645,0,0,1,.768-.435,3.723,3.723,0,0,1,2.129-.28.835.835,0,0,1,.553.455c.394.8-.154,2.45-.382,3.051a8.245,8.245,0,0,1,1.385,3.2h.638A1.532,1.532,0,0,1,26,15.043ZM10.156,5.5a3.116,3.116,0,0,0,1.288,2.516,10.75,10.75,0,0,1,3.671,0A3.119,3.119,0,1,0,10.156,5.5Zm15.008,9.543a.693.693,0,0,0-.691-.691h-1A.423.423,0,0,1,23.063,14a7.412,7.412,0,0,0-1.422-3.372.413.413,0,0,1-.049-.414,4.716,4.716,0,0,0,.471-2.6,2.972,2.972,0,0,0-1.568.24,4.212,4.212,0,0,0-.833.5.416.416,0,0,1-.479.024,10.481,10.481,0,0,0-2.369-1.095,3.988,3.988,0,0,1-.686.965,9.568,9.568,0,0,1,1.057.363.419.419,0,1,1-.319.775,9.662,9.662,0,0,0-7.173,0,.419.419,0,0,1-.321-.775,9.5,9.5,0,0,1,1.055-.363,3.993,3.993,0,0,1-.68-.957c-3.7,1.193-6.333,4.2-6.333,7.725a7.777,7.777,0,0,0,3.218,6.114.433.433,0,0,1,.167.3L7.072,24.5a1.045,1.045,0,0,0,2.06.138l.341-1.5A.415.415,0,0,1,10,22.827a11.689,11.689,0,0,0,6.557,0,.377.377,0,0,1,.118-.02.42.42,0,0,1,.41.329l.341,1.5a1.035,1.035,0,0,0,1.016.813,1.047,1.047,0,0,0,1.044-.951l.272-3.071a.428.428,0,0,1,.162-.3A8.525,8.525,0,0,0,22.3,18.363a.42.42,0,0,1,.374-.223h1.8a.693.693,0,0,0,.691-.691V15.043ZM11.062,5.5A2.218,2.218,0,1,1,13.28,7.72,2.22,2.22,0,0,1,11.062,5.5Zm.839,0A1.379,1.379,0,1,0,13.28,4.123,1.381,1.381,0,0,0,11.9,5.5Z" transform="translate(1231 316.413)"/>
    <path id="Path_19987" data-name="Path 19987" d="M.918-11.133H5.38v.011a7.279,7.279,0,0,1-.449.739H3.743a1.882,1.882,0,0,1,.334.794h1.27q.022.005.022.022-.427.723-.438.728H4.11a2.375,2.375,0,0,1-.312.9,2.091,2.091,0,0,1-.734.69,2.6,2.6,0,0,1-1.237.35v.011a2.041,2.041,0,0,0,.29.433l2.2,3.017V-3.3a.019.019,0,0,1-.022.022H3.327Q.71-6.731.71-6.747v-.7l.011-.027a3.341,3.341,0,0,0,.542.038A1.683,1.683,0,0,0,3.086-8.516a.985.985,0,0,0,.055-.323H.491q-.022,0-.022-.027.438-.723.449-.723H3.026V-9.6a1.3,1.3,0,0,0-.7-.646,1.962,1.962,0,0,0-.668-.137H.48v-.027Q.907-11.133.918-11.133Z" transform="translate(1241.076 340.133)"/>
  </g>
</svg>
